<?xml version="1.0" encoding="iso-8859-1"?>
<!-- Generator: Adobe Illustrator 19.0.0, SVG Export Plug-In . SVG Version: 6.00 Build 0)  -->
<svg version="1.1" id="Layer_1" xmlns="http://www.w3.org/2000/svg" xmlns:xlink="http://www.w3.org/1999/xlink" x="0px" y="0px"
	 viewBox="0 0 141.74 141.74" style="enable-background:new 0 0 141.74 141.74;" xml:space="preserve">
<g>
	<circle style="fill:#FF1744;" cx="70.87" cy="70.87" r="70.87"/>
	<g>
		<path style="fill:#FFFFFF;" d="M98.078,82.135c-5.238,0-9.5,4.262-9.5,9.5c0,2.819,1.241,5.348,3.198,7.089
			c-0.014,0.02-0.031,0.036-0.044,0.056c-5.016,7.917-11.775,11.55-18.085,9.722c-6.556-1.902-10.917-9.32-11.384-19.126
			c0.255-0.061,0.5-0.13,0.741-0.205c0.347-0.097,0.665-0.22,0.975-0.35c1.252-0.511,2.372-1.138,3.392-1.836
			c2.063-1.382,3.813-2.997,5.435-4.68c3.218-3.387,5.8-7.149,7.876-11.015c2.074-3.869,3.559-7.888,4.474-11.83
			c0.449-1.973,0.767-3.924,0.942-5.828c0.063-0.958,0.151-1.993,0.142-2.827l0.008-0.651l0.004-0.323L86.25,49.61l-0.006-0.168
			c-0.017-0.447-0.033-0.89-0.05-1.329c-0.063-1.751-0.26-3.458-0.56-5.08c-0.363-1.624-0.775-3.178-1.485-4.591
			c-0.296-0.716-0.757-1.365-1.143-1.998c-0.482-0.591-0.908-1.187-1.454-1.654c-0.496-0.513-1.065-0.891-1.593-1.268
			c-0.55-0.327-1.087-0.638-1.61-0.858c-0.899-0.381-1.712-0.628-2.444-0.8c-0.468-1.774-2.068-3.088-3.989-3.088v2.574
			c-0.087-0.006-0.136-0.009-0.136-0.009c-0.845-0.051-1.604,0.562-1.708,1.414c-0.109,0.885,0.52,1.692,1.405,1.801
			c0,0,0.139,0.017,0.408,0.05c0.009,0.001,0.022,0.003,0.032,0.004v2.446c1.398,0,2.629-0.698,3.379-1.759
			c0.495,0.159,1.018,0.357,1.548,0.609c0.721,0.374,1.469,0.837,2.099,1.535c0.35,0.311,0.607,0.747,0.923,1.146
			c0.241,0.474,0.551,0.909,0.745,1.471c0.921,2.131,1.301,5.007,1.357,8.195c0.004,0.4,0.008,0.804,0.013,1.212l0.002,0.153v0.038
			c0-0.003,0,0.002,0,0.01l-0.003,0.055l-0.013,0.323l-0.025,0.651c-0.017,0.911-0.121,1.647-0.193,2.491
			c-0.204,1.693-0.536,3.431-0.987,5.194c-0.917,3.525-2.387,7.122-4.28,10.641c-1.918,3.501-4.323,6.923-7.203,9.896
			c-1.441,1.471-2.995,2.863-4.649,3.944c-1.627,1.087-3.451,1.878-4.69,1.754l-0.418-0.024c-0.115-0.013-0.164-0.036-0.25-0.049
			c-0.156-0.034-0.291-0.036-0.518-0.108c-0.409-0.091-0.829-0.252-1.252-0.404c-0.846-0.356-1.691-0.822-2.518-1.352
			c-1.643-1.1-3.189-2.462-4.604-3.949c-2.818-3.003-5.135-6.471-6.944-10.023c-1.807-3.561-3.122-7.217-3.958-10.769
			c-0.417-1.777-0.681-3.532-0.854-5.234c-0.036-0.426-0.071-0.849-0.106-1.267c-0.016-0.419-0.032-0.835-0.048-1.247l-0.012-0.308
			l-0.006-0.154c-0.001,0.012-0.001-0.082-0.002,0.018v-0.04l0.001-0.081l0.008-0.645c0.005-0.428,0.01-0.852,0.014-1.271
			c0.075-3.118,0.569-5.986,1.531-8.06c0.977-2.076,2.455-3.279,3.99-3.915c0.683-0.289,1.337-0.489,1.946-0.644
			c0.73,1.177,2.023,1.967,3.51,1.967v-2.532l0.025-0.003c0.822-0.096,1.448-0.807,1.424-1.65c-0.023-0.819-0.655-1.471-1.449-1.552
			v-2.543c-1.84,0-3.381,1.208-3.92,2.868c-0.835,0.143-1.802,0.373-2.888,0.78c-0.535,0.17-1.071,0.479-1.641,0.762
			c-0.284,0.146-0.55,0.353-0.833,0.537c-0.282,0.189-0.572,0.382-0.828,0.63c-1.128,0.89-2.04,2.157-2.807,3.536
			c-0.171,0.354-0.345,0.712-0.521,1.077c-0.17,0.367-0.282,0.746-0.427,1.128c-0.307,0.767-0.465,1.558-0.683,2.373
			c-0.185,0.813-0.3,1.643-0.432,2.501c-0.075,0.852-0.191,1.785-0.227,2.629c-0.016,0.419-0.033,0.842-0.049,1.27l-0.025,0.645
			l-0.005,0.221l0.001,0.171l0.003,0.345c0.005,0.46,0.011,0.925,0.017,1.394c0.026,0.468,0.053,0.939,0.079,1.416
			c0.139,1.899,0.381,3.857,0.788,5.835c0.816,3.953,2.134,8.031,4.116,11.956c1.962,3.931,4.461,7.771,7.641,11.225
			c1.604,1.714,3.383,3.331,5.433,4.729c1.041,0.684,2.147,1.314,3.358,1.834c0.624,0.241,1.248,0.478,1.929,0.645
			c0.206,0.065,0.464,0.116,0.729,0.162c0.523,11.613,6.001,20.512,14.272,22.912c1.417,0.411,2.854,0.612,4.293,0.612
			c6.686-0.001,13.412-4.331,18.295-12.04c0.046-0.073,0.078-0.151,0.114-0.227c0.898,0.283,1.854,0.436,2.845,0.436
			c5.238,0,9.499-4.262,9.499-9.499C107.577,86.397,103.316,82.135,98.078,82.135z M98.078,98.308c-3.679,0-6.673-2.993-6.673-6.673
			s2.994-6.673,6.673-6.673c3.679,0,6.673,2.993,6.673,6.673C104.75,95.314,101.757,98.308,98.078,98.308z"/>
		<circle style="fill:#FFFFFF;" cx="98.078" cy="91.635" r="4.475"/>
	</g>
</g>
<g>
</g>
<g>
</g>
<g>
</g>
<g>
</g>
<g>
</g>
<g>
</g>
<g>
</g>
<g>
</g>
<g>
</g>
<g>
</g>
<g>
</g>
<g>
</g>
<g>
</g>
<g>
</g>
<g>
</g>
</svg>
